<?xml version="1.0" encoding="UTF-8"?>
<!DOCTYPE svg PUBLIC "-//W3C//DTD SVG 1.1//EN" "http://www.w3.org/Graphics/SVG/1.1/DTD/svg11.dtd">
<!-- Creator: CorelDRAW -->
<svg xmlns="http://www.w3.org/2000/svg" xml:space="preserve" width="3375px" height="6000px" version="1.1" style="shape-rendering:geometricPrecision; text-rendering:geometricPrecision; image-rendering:optimizeQuality; fill-rule:evenodd; clip-rule:evenodd"
viewBox="0 0 3375 6000"
 xmlns:xlink="http://www.w3.org/1999/xlink"
 xmlns:xodm="http://www.corel.com/coreldraw/odm/2003">
 <defs>
  <style type="text/css">
   <![CDATA[
    .fil1 {fill:url(#id0)}
    .fil0 {fill:url(#id1);fill-rule:nonzero}
   ]]>
  </style>
  <linearGradient id="id0" gradientUnits="userSpaceOnUse" x1="1928.43" y1="2493.27" x2="1572.03" y2="3176.56">
   <stop offset="0" style="stop-opacity:1; stop-color:#0D43E3"/>
   <stop offset="0.360784" style="stop-opacity:1; stop-color:#70D42D"/>
   <stop offset="0.615686" style="stop-opacity:1; stop-color:#B0A12A"/>
   <stop offset="0.670588" style="stop-opacity:1; stop-color:#F06D27"/>
   <stop offset="0.745098" style="stop-opacity:1; stop-color:#F63714"/>
   <stop offset="1" style="stop-opacity:1; stop-color:#FC0000"/>
  </linearGradient>
  <linearGradient id="id1" gradientUnits="userSpaceOnUse" x1="1930.88" y1="2478.11" x2="1570.39" y2="3186.75">
   <stop offset="0" style="stop-opacity:1; stop-color:#9EA3D1"/>
   <stop offset="0.360784" style="stop-opacity:1; stop-color:#C6E0AA"/>
   <stop offset="0.615686" style="stop-opacity:1; stop-color:#DDCEA1"/>
   <stop offset="0.670588" style="stop-opacity:1; stop-color:#F4BC98"/>
   <stop offset="0.745098" style="stop-opacity:1; stop-color:#F6B192"/>
   <stop offset="1" style="stop-opacity:1; stop-color:#F8A68C"/>
  </linearGradient>
 </defs>
 <g id="Layer_x0020_1">
  <metadata id="CorelCorpID_0Corel-Layer"/>
  <g id="_1987285643296">
   <path class="fil0" d="M1786.8 2751.82c-9.25,13.16 -22.82,44.02 -32.28,65.53l-4.98 11.22c-1.23,2.73 -3.87,8.94 -6.98,16.25 -9.24,21.69 -22.99,53.98 -30.04,64.73l-67.59 175.79 -32.76 89.96c9.98,-0.19 19.3,-0.74 28.35,-2.04 11.54,-1.65 22.58,-4.55 33.97,-9.51 3.32,-1.44 7.16,-3.62 11.13,-6.29l-2.28 0.02c-7.11,0 -12.88,-5.78 -12.88,-12.89 0,-3.88 1.73,-7.37 4.45,-9.74 6.06,-5.24 12.6,-8.62 18.97,-11.91 1.94,-1 3.87,-2 6.12,-3.26 3.89,-2.19 7.46,-4.61 10.75,-7.05l1.55 -1.17c-14.75,4.44 -32.8,5.86 -58.81,2.32 -7.05,-0.95 -12.01,-7.45 -11.06,-14.5 0.67,-4.99 4.1,-8.92 8.55,-10.47l18.64 -7.26c0.85,-0.33 1.72,-0.56 2.58,-0.7 21.66,-3.59 46.57,-19.25 68.51,-39.04 25.22,-22.73 45.91,-50.35 53.19,-71.32 1.01,-2.9 2.95,-5.2 5.37,-6.7 1.86,-1.19 7.34,-12.97 13.49,-27.57 5.87,-13.9 11.7,-29.67 15.85,-42.17l-1.62 0.2c-7.08,0.87 -13.53,-4.18 -14.39,-11.26 -0.62,-5.08 1.8,-9.83 5.82,-12.44 8.53,-5.95 17.14,-12.26 24.49,-19.39 -6.41,2.1 -13.43,-1.12 -15.98,-7.46 -2.23,-5.57 -0.3,-11.78 4.31,-15.18l3.61 -3.01c26.03,-21.32 46.67,-38.22 58.6,-77.16l-17.18 5.37c-1.79,0.56 -3.61,0.71 -5.36,0.5 -8.64,-0.72 -12.45,-5.31 -12.1,-13.64l0.01 -0.2c0.43,-7.63 5,-10.18 11.8,-13.96 6.27,-3.47 17.58,-9.77 20.39,-15.96 1.08,-2.39 2.79,-4.29 4.85,-5.6 4.95,-3.15 9.79,-8.34 14.14,-14.52 5.29,-7.51 9.73,-16.29 12.85,-24.73 0.92,-2.5 2.53,-4.55 4.54,-6l0.28 -0.22c-0.09,-0.14 -0.06,-0.33 0.12,-0.59 6.98,-9.81 17.91,-31.63 27.03,-53.47 7.87,-18.86 14.21,-37.2 15.12,-46.81 0.11,-1.27 0.41,-2.47 0.86,-3.59 0.9,-2.34 1.7,-4.83 2.38,-7.44 5.06,-19.15 3.31,-41.43 -3.28,-60.34 -6.2,-17.8 -16.4,-32.12 -28.68,-36.86 -0.76,-0.29 -1.61,-0.57 -2.52,-0.81 -16,-4.23 -32.59,13.08 -41.37,22.24l-2.56 2.65c-7.39,7.53 -14.27,14.57 -21.22,22.29 -6.8,7.53 -13.3,15.34 -19.74,24.19 -0.68,0.94 -1.47,1.76 -2.34,2.45 -4.9,3.98 -24.56,29.55 -44.22,56.54 -19.61,26.91 -38.81,54.81 -43.23,63.97l-0.76 1.36 -27.23 42.17 -0.66 0.94c-9.81,14.72 -43.95,73.94 -69.25,124.03 -15.45,30.6 -27.37,56.91 -27.45,64.96 -0.03,3.78 -1.7,7.18 -4.31,9.52 -5.02,4.53 -13.72,27.31 -22.01,53.38 -10.31,32.43 -19.16,68.59 -19.8,82.59 -0.08,1.87 -0.56,3.64 -1.35,5.21 -5.16,11.55 -6.68,28.03 -8.16,44.2 -0.81,8.83 -1.62,17.58 -2.94,25.59 -1.01,6.22 -6.31,10.68 -12.39,10.83 5.93,12.55 10.44,27.17 11.57,47.55l0.02 0.36 26.79 -73.99 71.78 -180.94c0.72,-1.82 1.81,-3.38 3.15,-4.64 0.1,-0.13 28.06,-61 50.15,-108.51 12.81,-27.56 23.05,-49.84 23.45,-51.44 0.59,-2.42 1.83,-4.5 3.48,-6.12 2.6,-2.87 10.65,-16.91 19.16,-32.57 10.56,-19.43 21.32,-40.67 23.48,-46.74 0.38,-1.08 0.89,-2.08 1.51,-2.98l59.59 -92.59c0.34,-0.53 0.72,-1.03 1.12,-1.49l15.29 -18.92c4.47,-5.55 12.59,-6.43 18.14,-1.97 5.11,4.11 6.26,11.32 2.93,16.77l-12.17 21.93 -0.68 1.09c-3,4.36 -5.93,8.7 -8.91,13.27l-0.46 0.66c-2.53,3.89 -5.51,8.58 -8.98,14.13 -1.61,2.59 -3.51,5.95 -5.57,9.59 -4.28,7.57 -9.15,16.18 -13.18,21.19 -20.43,39.46 -41.08,78.77 -61.7,118.13l-0.87 1.46zm-195.29 461.36l-3.78 -3.68 -46.37 132.99c-6.41,23 -12.36,46.75 -19.47,69.47 -1.9,6.06 -2.95,9.47 -5.73,12.84l-0.9 1.07c-4.08,4.38 -7.57,5.29 -14.73,7.14l-1.05 0.27c-2.45,0.8 -5.17,0.87 -7.82,0.05 -6.8,-2.12 -10.61,-9.36 -8.49,-16.17 22.69,-72.76 45.91,-144.43 69.66,-216.89 -8.25,0.56 -17.15,3.19 -25.77,5.74 -4.45,1.31 -8.85,2.62 -13.19,3.68 -3.81,0.92 -8,0.11 -11.26,-2.58 -5.5,-4.51 -6.29,-12.64 -1.77,-18.13 7.42,-9.03 16.23,-14.11 25.67,-18.38 -3.99,-3.01 -7.66,-6.5 -11.6,-10.91 -2.76,-2.83 -4.19,-6.88 -3.5,-11.08 1.14,-7.03 7.77,-11.8 14.8,-10.66 5.78,0.94 10.24,1.96 14.38,2.9 3.73,0.85 7.17,1.63 11.23,2.2 -3.4,-18.39 -10.89,-30.71 -18.62,-43.46 -5.3,-8.73 -10.71,-17.64 -15.35,-28.49 -1.2,-2.85 -1.39,-6.14 -0.3,-9.3 2.34,-6.72 9.7,-10.27 16.42,-7.93 2.87,1.01 4.3,1.43 5.22,1.69 1.7,0.5 2.63,0.78 4.05,1.48l0.1 0.05c1.55,0.78 2.44,1.43 4.3,2.8 1.19,0.86 3.77,2.46 4.71,3.39 2.39,1.7 3.25,2.29 4.23,3.19l1.01 1c1.57,-16.9 3.35,-33.96 9.37,-48.37 1.49,-17.28 10.48,-54.15 20.83,-86.71 8.19,-25.75 17.64,-49.52 25.7,-60.57 2.73,-14.64 14.67,-41.56 29.6,-71.13 25.6,-50.7 60.63,-111.34 70.9,-126.77l27.2 -42.15c5.6,-11.03 25.31,-39.73 45.24,-67.09 19.45,-26.69 39.5,-52.56 47.42,-60.14 7.04,-9.6 13.75,-17.66 20.5,-25.16 6.86,-7.62 14.18,-15.09 22.03,-23.1l2.36 -2.44c12.41,-12.96 35.86,-37.43 66.52,-29.31 1.71,0.45 3.47,1.03 5.25,1.72 19.76,7.61 35.2,27.89 43.74,52.41 8.16,23.42 10.27,51.23 3.89,75.4 -0.77,2.91 -1.69,5.82 -2.75,8.71 -1.65,12.63 -8.45,32.63 -16.72,52.46 -9.76,23.37 -21.81,47.22 -29.86,58.53 -0.99,1.38 -1.92,2.57 -2.8,3.58 -3.77,9.54 -8.88,19.31 -14.89,27.85 -3.6,5.11 -7.55,9.82 -11.79,13.87 3.65,2.87 5.63,7.64 4.72,12.53 -7.86,41.41 -21.51,65.03 -39.46,84.15 2.91,3.26 4.09,7.91 2.72,12.39 -4.79,15.5 -13.19,27.88 -23.28,38.37 -2.02,2.1 -4.09,4.11 -6.2,6.05 1.47,2.66 2.02,5.86 1.29,9.06 -2.63,11.68 -12.62,40.93 -22.61,64.62 -6.38,15.13 -13.25,28.58 -19.28,35.54 -8.96,23.38 -30.19,52.2 -55.81,76.09l0.85 0.19c6.89,1.78 11.03,8.82 9.25,15.71 -1.83,7.06 -6.95,16.15 -12.79,24.68 -7.66,11.21 -17.23,22.39 -21.58,26.05l-1.01 0.86c1.02,2.06 1.49,4.43 1.26,6.89 -0.97,10.2 -8.35,21.18 -18.01,30.76 -10.49,10.4 -24.27,19.9 -34.6,24.39 -13.77,6 -26.96,9.47 -40.64,11.44 -6.15,0.88 -12.43,1.45 -18.92,1.8 3.56,7.45 5.77,16 4.67,26.58 -0.52,4.84 -3.74,9.18 -8.64,10.87 -6.72,2.31 -14.05,-1.26 -16.36,-7.99 -2.08,-6.02 -7.74,-11.47 -13.39,-16.91zm-15.42 -47.82c-1.75,2 -4.11,3.45 -6.8,4.06 0.31,2.04 0.13,4.19 -0.61,6.26l3.35 0.88 4.06 -11.2z"/>
   <path class="fil1" d="M1776.25 2744.39c-11.89,16.9 -29.21,58.19 -38.48,78.93 -6.66,14.88 -29.16,70.12 -36.65,80.03l-68.29 177.6 -41.42 113.63c8.75,10.32 21.11,18.15 25.66,31.32 1.67,-16.09 -7.81,-27.22 -15.04,-37.65 29.17,0.07 52.45,-1.73 77.61,-12.67 16.5,-7.19 43.47,-29.35 44.93,-44.55 -6.24,9.78 -23.66,13.58 -41.23,13.56 6.76,-5.84 15.45,-9.4 22.97,-13.64 8.66,-4.88 16.14,-10.9 22.55,-16.31 6.29,-5.3 26.84,-31.18 30.18,-44.11 -31.93,19.95 -47.13,38.19 -103.83,30.46l19.06 -7.41c51.86,-8.58 116.82,-75.69 131.81,-118.85 10.45,-6.49 36.12,-76.69 40.47,-95.95l-21.12 2.64c20.31,-14.15 41.33,-30.44 49.55,-57.08l-36.08 14.56c34.49,-28.34 60.69,-47.59 72.47,-109.69l-38.94 12.19c-5.71,-0.32 23.29,-10.05 30.35,-25.63 13.74,-8.73 25.61,-27.92 32.2,-45.71 0.62,-0.53 -0.22,1.18 3.32,-3.78 14.12,-19.83 42.23,-82.93 44.47,-106.55 17.61,-45.68 -4.1,-113.03 -40.79,-122.73 -25.28,-6.68 -46.68,18.4 -56.4,28.32 -15.25,15.56 -28.38,28.99 -42.18,47.95 -11.45,9.22 -81.54,105.3 -91,124.93l-27.23 42.17c-15.2,22.38 -99.1,169.93 -99.38,196.8 -15.1,13.52 -44.86,117.47 -46.12,145.03 -9.25,20.14 -8.36,49.62 -12.3,73.49 -6.92,-6.46 -10.05,-9.98 -15.59,-15.5 -5.41,-5.4 -1.66,-2.68 -7.65,-6.92 -9.54,-6.75 -3.66,-3.46 -14.4,-7.22 13.42,31.42 34.19,46.22 36.67,90.8 -20.39,-0.03 -25.54,-3.45 -42.26,-6.17 9.42,10.61 16.56,14.86 32.39,20.65 -16.67,8.93 -34.46,12.13 -45.74,25.83 18.87,-4.62 39.82,-14.25 59.18,-7.74l-46.41 141.62 -28.06 89.96c11.97,-3.14 10.63,-2.07 15.08,-16.13l18.47 -66.23 51.53 -147.79 37.63 -103.94 71.63 -180.59c0.53,-0.5 75.61,-159.37 77.31,-166.26 7.27,-7.42 41.46,-72.11 45.76,-84.21l59.79 -92.89 15.6 -19.31 -12.42 22.38c-6.16,8.85 -11.94,17.76 -18.72,28.6 -4.73,7.56 -13.95,25.48 -18.64,30.49l-18.58 35.88 -43.69 83.39z"/>
  </g>
 </g>
</svg>
