<?xml version="1.0" encoding="UTF-8"?>
<!DOCTYPE svg PUBLIC "-//W3C//DTD SVG 1.1//EN" "http://www.w3.org/Graphics/SVG/1.1/DTD/svg11.dtd">
<!-- Creator: CorelDRAW -->
<svg xmlns="http://www.w3.org/2000/svg" xml:space="preserve" width="3375px" height="6000px" version="1.1" style="shape-rendering:geometricPrecision; text-rendering:geometricPrecision; image-rendering:optimizeQuality; fill-rule:evenodd; clip-rule:evenodd"
viewBox="0 0 3375 6000"
 xmlns:xlink="http://www.w3.org/1999/xlink"
 xmlns:xodm="http://www.corel.com/coreldraw/odm/2003">
 <defs>
  <style type="text/css">
   <![CDATA[
    .fil0 {fill:#D2D3D5}
    .fil2 {fill:url(#id0)}
    .fil4 {fill:url(#id1)}
    .fil3 {fill:url(#id2);fill-rule:nonzero}
    .fil1 {fill:url(#id3);fill-rule:nonzero}
   ]]>
  </style>
  <linearGradient id="id0" gradientUnits="userSpaceOnUse" x1="2595.43" y1="2465.36" x2="2239.03" y2="3148.65">
   <stop offset="0" style="stop-opacity:1; stop-color:#0D43E3"/>
   <stop offset="0.360784" style="stop-opacity:1; stop-color:#70D42D"/>
   <stop offset="0.615686" style="stop-opacity:1; stop-color:#B0A12A"/>
   <stop offset="0.670588" style="stop-opacity:1; stop-color:#F06D27"/>
   <stop offset="0.745098" style="stop-opacity:1; stop-color:#F63714"/>
   <stop offset="1" style="stop-opacity:1; stop-color:#FC0000"/>
  </linearGradient>
  <linearGradient id="id1" gradientUnits="userSpaceOnUse" x1="1073.12" y1="3153.63" x2="750.07" y2="2862.32">
   <stop offset="0" style="stop-opacity:1; stop-color:#6ABD50"/>
   <stop offset="1" style="stop-opacity:1; stop-color:#0F5207"/>
  </linearGradient>
  <linearGradient id="id2" gradientUnits="userSpaceOnUse" x1="796.08" y1="2485.26" x2="1069.16" y2="3398.36">
   <stop offset="0" style="stop-opacity:1; stop-color:#6ABD50"/>
   <stop offset="1" style="stop-opacity:1; stop-color:#355235"/>
  </linearGradient>
  <linearGradient id="id3" gradientUnits="userSpaceOnUse" x1="2597.88" y1="2450.2" x2="2237.39" y2="3158.84">
   <stop offset="0" style="stop-opacity:1; stop-color:#9EA3D1"/>
   <stop offset="0.360784" style="stop-opacity:1; stop-color:#C6E0AA"/>
   <stop offset="0.615686" style="stop-opacity:1; stop-color:#DDCEA1"/>
   <stop offset="0.670588" style="stop-opacity:1; stop-color:#F4BC98"/>
   <stop offset="0.745098" style="stop-opacity:1; stop-color:#F6B192"/>
   <stop offset="1" style="stop-opacity:1; stop-color:#F8A68C"/>
  </linearGradient>
 </defs>
 <g id="Layer_x0020_1">
  <metadata id="CorelCorpID_0Corel-Layer"/>
  <rect class="fil0" x="1323.5" y="2395" width="608.67" height="1011"/>
  <g id="_1987064264016">
   <path class="fil1" d="M2453.8 2723.9c-9.25,13.17 -22.82,44.03 -32.28,65.54l-4.98 11.22c-1.22,2.73 -3.87,8.94 -6.98,16.24 -9.24,21.7 -22.99,53.99 -30.04,64.74l-67.59 175.79 -32.76 89.96c9.98,-0.19 19.3,-0.75 28.35,-2.04 11.54,-1.65 22.58,-4.55 33.97,-9.51 3.32,-1.44 7.16,-3.63 11.13,-6.3l-2.28 0.02c-7.11,0 -12.88,-5.77 -12.88,-12.88 0,-3.89 1.73,-7.38 4.45,-9.74 6.06,-5.24 12.6,-8.63 18.97,-11.91 1.94,-1 3.87,-2 6.12,-3.26 3.89,-2.2 7.46,-4.61 10.75,-7.05l1.55 -1.17c-14.75,4.44 -32.8,5.85 -58.81,2.31 -7.05,-0.94 -12.01,-7.44 -11.06,-14.5 0.67,-4.98 4.11,-8.91 8.55,-10.46l18.64 -7.26c0.85,-0.33 1.72,-0.56 2.58,-0.7 21.66,-3.59 46.57,-19.25 68.51,-39.04 25.22,-22.73 45.91,-50.35 53.19,-71.32 1.01,-2.9 2.95,-5.21 5.37,-6.71 1.86,-1.18 7.34,-12.96 13.49,-27.56 5.87,-13.91 11.7,-29.67 15.85,-42.17l-1.62 0.2c-7.08,0.86 -13.53,-4.18 -14.39,-11.27 -0.62,-5.07 1.8,-9.83 5.82,-12.43 8.53,-5.95 17.14,-12.27 24.49,-19.39 -6.41,2.09 -13.43,-1.12 -15.98,-7.47 -2.23,-5.56 -0.3,-11.77 4.31,-15.18l3.61 -3.01c26.04,-21.31 46.67,-38.22 58.6,-77.15l-17.18 5.37c-1.79,0.56 -3.61,0.71 -5.36,0.5 -8.64,-0.72 -12.45,-5.32 -12.1,-13.64l0.01 -0.2c0.43,-7.64 5,-10.18 11.8,-13.96 6.27,-3.48 17.59,-9.77 20.39,-15.96 1.08,-2.39 2.79,-4.29 4.85,-5.6 4.95,-3.15 9.79,-8.35 14.14,-14.53 5.29,-7.51 9.73,-16.28 12.85,-24.72 0.92,-2.5 2.53,-4.55 4.54,-6l0.28 -0.22c-0.09,-0.15 -0.06,-0.34 0.12,-0.59 6.98,-9.81 17.91,-31.64 27.03,-53.47 7.87,-18.87 14.21,-37.2 15.12,-46.82 0.11,-1.26 0.41,-2.46 0.86,-3.59 0.9,-2.33 1.7,-4.83 2.38,-7.43 5.06,-19.15 3.31,-41.43 -3.28,-60.34 -6.2,-17.8 -16.4,-32.13 -28.68,-36.86 -0.76,-0.29 -1.61,-0.57 -2.52,-0.81 -16,-4.23 -32.59,13.07 -41.37,22.23l-2.56 2.66c-7.39,7.53 -14.27,14.57 -21.22,22.28 -6.8,7.54 -13.3,15.35 -19.74,24.2 -0.68,0.94 -1.47,1.76 -2.34,2.45 -4.9,3.98 -24.56,29.54 -44.22,56.54 -19.61,26.91 -38.81,54.81 -43.23,63.96l-0.76 1.37 -27.23 42.17 -0.66 0.93c-9.81,14.72 -43.95,73.95 -69.25,124.04 -15.45,30.59 -27.37,56.91 -27.45,64.96 -0.03,3.78 -1.69,7.18 -4.31,9.51 -5.02,4.53 -13.72,27.32 -22.01,53.39 -10.31,32.43 -19.16,68.59 -19.8,82.58 -0.08,1.88 -0.55,3.64 -1.34,5.22 -5.17,11.55 -6.69,28.03 -8.17,44.19 -0.81,8.83 -1.62,17.59 -2.94,25.6 -1.01,6.22 -6.31,10.67 -12.39,10.83 5.93,12.55 10.44,27.16 11.57,47.55l0.02 0.36 26.79 -73.99 71.78 -180.94c0.72,-1.82 1.81,-3.38 3.15,-4.64 0.1,-0.13 28.06,-61 50.15,-108.51 12.81,-27.57 23.05,-49.84 23.45,-51.45 0.59,-2.41 1.83,-4.49 3.48,-6.12 2.6,-2.87 10.65,-16.9 19.16,-32.56 10.56,-19.43 21.32,-40.67 23.48,-46.74 0.38,-1.09 0.89,-2.08 1.51,-2.99l59.59 -92.58c0.34,-0.53 0.72,-1.03 1.12,-1.49l15.29 -18.92c4.47,-5.55 12.59,-6.44 18.14,-1.97 5.11,4.11 6.26,11.32 2.93,16.77l-12.17 21.92 -0.68 1.1c-3,4.35 -5.93,8.7 -8.91,13.27l-0.46 0.66c-2.53,3.88 -5.51,8.58 -8.97,14.13 -1.62,2.58 -3.52,5.95 -5.58,9.58 -4.28,7.58 -9.15,16.18 -13.18,21.2 -20.43,39.45 -41.08,78.77 -61.7,118.12l-0.87 1.46zm-195.29 461.36l-3.78 -3.67 -46.37 132.99c-6.41,22.99 -12.36,46.74 -19.47,69.47 -1.89,6.06 -2.95,9.46 -5.73,12.83l-0.9 1.08c-4.08,4.38 -7.57,5.28 -14.73,7.13l-1.05 0.28c-2.45,0.8 -5.17,0.87 -7.82,0.04 -6.8,-2.12 -10.61,-9.36 -8.49,-16.16 22.69,-72.76 45.91,-144.43 69.66,-216.9 -8.25,0.56 -17.15,3.2 -25.77,5.74 -4.45,1.32 -8.85,2.63 -13.19,3.69 -3.81,0.92 -8,0.1 -11.26,-2.58 -5.5,-4.52 -6.29,-12.64 -1.77,-18.13 7.42,-9.03 16.23,-14.11 25.67,-18.39 -3.99,-3.01 -7.66,-6.5 -11.6,-10.9 -2.76,-2.83 -4.19,-6.88 -3.5,-11.08 1.14,-7.03 7.77,-11.81 14.8,-10.66 5.78,0.94 10.25,1.96 14.38,2.9 3.73,0.85 7.17,1.63 11.23,2.2 -3.4,-18.39 -10.88,-30.71 -18.62,-43.46 -5.29,-8.73 -10.71,-17.64 -15.35,-28.49 -1.2,-2.86 -1.39,-6.15 -0.3,-9.3 2.34,-6.72 9.7,-10.27 16.42,-7.93 2.87,1 4.3,1.43 5.22,1.69 1.7,0.5 2.63,0.77 4.05,1.48l0.1 0.05c1.56,0.78 2.44,1.43 4.3,2.8 1.19,0.85 3.77,2.45 4.71,3.39 2.39,1.7 3.25,2.29 4.23,3.18l1.01 1.01c1.57,-16.9 3.35,-33.96 9.37,-48.37 1.49,-17.29 10.49,-54.16 20.83,-86.72 8.19,-25.75 17.64,-49.51 25.7,-60.57 2.73,-14.63 14.67,-41.56 29.6,-71.12 25.6,-50.71 60.63,-111.34 70.9,-126.77l27.2 -42.15c5.61,-11.03 25.31,-39.73 45.24,-67.09 19.45,-26.7 39.5,-52.56 47.42,-60.14 7.04,-9.61 13.75,-17.67 20.5,-25.16 6.86,-7.62 14.18,-15.09 22.03,-23.1l2.36 -2.45c12.41,-12.95 35.86,-37.42 66.53,-29.3 1.7,0.45 3.46,1.02 5.24,1.71 19.76,7.62 35.2,27.9 43.74,52.42 8.16,23.42 10.27,51.23 3.89,75.4 -0.77,2.9 -1.69,5.82 -2.75,8.71 -1.65,12.62 -8.45,32.63 -16.72,52.46 -9.76,23.36 -21.81,47.22 -29.86,58.53 -0.99,1.38 -1.92,2.57 -2.8,3.58 -3.77,9.54 -8.88,19.31 -14.89,27.85 -3.6,5.1 -7.55,9.82 -11.79,13.86 3.66,2.88 5.63,7.64 4.72,12.53 -7.86,41.42 -21.51,65.04 -39.46,84.16 2.91,3.25 4.09,7.91 2.72,12.38 -4.79,15.51 -13.19,27.89 -23.28,38.38 -2.01,2.1 -4.09,4.11 -6.2,6.04 1.47,2.67 2.02,5.86 1.29,9.07 -2.63,11.68 -12.62,40.93 -22.61,64.61 -6.38,15.14 -13.25,28.59 -19.28,35.55 -8.96,23.38 -30.19,52.2 -55.81,76.09l0.85 0.19c6.89,1.78 11.03,8.82 9.25,15.71 -1.83,7.05 -6.95,16.15 -12.79,24.68 -7.66,11.21 -17.23,22.38 -21.58,26.05l-1.01 0.85c1.02,2.07 1.49,4.43 1.26,6.9 -0.97,10.19 -8.35,21.18 -18.01,30.76 -10.49,10.4 -24.27,19.9 -34.6,24.39 -13.77,5.99 -26.96,9.47 -40.63,11.43 -6.16,0.89 -12.44,1.46 -18.93,1.81 3.56,7.45 5.77,16 4.67,26.58 -0.52,4.83 -3.74,9.18 -8.64,10.86 -6.72,2.32 -14.05,-1.26 -16.36,-7.98 -2.08,-6.02 -7.74,-11.48 -13.39,-16.92zm-15.42 -47.81c-1.75,1.99 -4.11,3.44 -6.8,4.06 0.31,2.04 0.13,4.18 -0.61,6.26l3.35 0.88 4.06 -11.2z"/>
   <path class="fil2" d="M2443.25 2716.48c-11.89,16.9 -29.21,58.19 -38.48,78.92 -6.66,14.89 -29.16,70.12 -36.65,80.03l-68.29 177.61 -41.42 113.62c8.75,10.32 21.12,18.16 25.66,31.33 1.67,-16.09 -7.81,-27.23 -15.04,-37.65 29.17,0.06 52.45,-1.73 77.61,-12.68 16.5,-7.18 43.47,-29.35 44.93,-44.55 -6.24,9.79 -23.66,13.59 -41.23,13.57 6.76,-5.84 15.45,-9.41 22.98,-13.65 8.65,-4.87 16.13,-10.89 22.54,-16.3 6.29,-5.3 26.84,-31.18 30.18,-44.12 -31.93,19.96 -47.13,38.2 -103.83,30.47l19.06 -7.42c51.86,-8.57 116.82,-75.69 131.81,-118.84 10.45,-6.5 36.12,-76.69 40.47,-95.95l-21.12 2.64c20.31,-14.16 41.33,-30.45 49.55,-57.08l-36.08 14.56c34.49,-28.34 60.69,-47.59 72.47,-109.69l-38.94 12.18c-5.71,-0.31 23.29,-10.05 30.35,-25.62 13.74,-8.73 25.61,-27.92 32.2,-45.71 0.62,-0.53 -0.21,1.18 3.32,-3.78 14.12,-19.84 42.23,-82.94 44.47,-106.56 17.61,-45.67 -4.1,-113.02 -40.79,-122.72 -25.28,-6.69 -46.68,18.4 -56.4,28.32 -15.25,15.55 -28.38,28.98 -42.18,47.95 -11.45,9.22 -81.54,105.3 -91,124.93l-27.23 42.16c-15.2,22.39 -99.1,169.93 -99.38,196.81 -15.1,13.51 -44.86,117.47 -46.12,145.02 -9.25,20.14 -8.36,49.63 -12.3,73.5 -6.92,-6.47 -10.05,-9.98 -15.59,-15.5 -5.41,-5.41 -1.66,-2.68 -7.65,-6.92 -9.54,-6.76 -3.66,-3.46 -14.4,-7.22 13.42,31.41 34.19,46.22 36.67,90.8 -20.39,-0.03 -25.54,-3.45 -42.26,-6.17 9.42,10.61 16.56,14.86 32.4,20.65 -16.68,8.93 -34.47,12.13 -45.75,25.83 18.87,-4.63 39.82,-14.25 59.18,-7.74l-46.41 141.61 -28.06 89.97c11.97,-3.14 10.63,-2.08 15.08,-16.13l18.47 -66.23 51.53 -147.79 37.63 -103.94 71.63 -180.59c0.53,-0.5 75.61,-159.37 77.31,-166.27 7.27,-7.42 41.46,-72.1 45.76,-84.21l59.79 -92.89 15.6 -19.3 -12.42 22.38c-6.16,8.85 -11.94,17.76 -18.72,28.59 -4.73,7.57 -13.95,25.49 -18.64,30.5l-18.58 35.88 -43.69 83.39z"/>
  </g>
  <g id="_1987064263344">
   <path class="fil3" d="M937.24 3186.51l12.48 -89.16 3.98 -3.23c1.27,-1.03 2.85,-2.12 4.65,-3.23l-11.34 -5.39 4.98 -12.02c4.39,-10.57 5.82,-11.14 12.68,-13.85 0.69,-0.27 1.6,-0.63 3.18,-1.45l5.1 -2.75 0.01 0.04c1.53,-0.86 3.08,-1.78 4.56,-2.7 5.43,-3.39 10.13,-6.62 15.26,-10.15 0.22,0 5.08,-3.56 5.3,-3.56 7.27,-4.93 13.16,-9.42 18.84,-14.24 5.72,-4.85 11.21,-10.03 17.71,-16.35 10.02,-9.73 21.3,-22.84 31.78,-36.94 9.76,-13.13 18.71,-27.01 25.13,-39.63 13.96,-27.49 24.87,-52.05 32.72,-77.76 7.82,-25.56 12.67,-52.37 14.63,-84.53 0.68,-11.32 0.97,-18.92 0.72,-26.01 -0.24,-6.92 -1.04,-14.11 -2.5,-24.72l-0.12 -0.8c-0.55,-3.91 -0.96,-6.82 -0.94,-9.5l-0.61 -0.49c-2.05,-1.66 -4.41,-3.55 -8.32,-3.97 2.81,31.03 -1.68,69.53 -10.17,107.84 -11.7,52.83 -31.11,105.95 -49.28,138.35 -8.44,15.05 -15.76,25.45 -22.99,35.7l-0.97 1.38c-7.79,11.05 -21.28,27.07 -36.24,39.93 -11.5,9.88 -24.08,18.1 -36.21,21.38l-21.57 5.84 7.29 -22.76c0.84,-2.62 1.09,-3.94 1.22,-4.65 0.55,-2.86 0.82,-4.24 2.99,-6.96l0.04 -0.05c2.44,-3.02 3.79,-3.45 6.36,-4.27 0.31,-0.1 0.95,-0.31 2.93,-1.57l24.23 -18.73c31.93,-28.37 57.36,-75.07 74.73,-127.01 17.52,-52.41 26.69,-109.82 26.03,-159.12 -13.06,17.3 -22.98,70.78 -29.99,108.61 -2.42,13.07 -4.54,24.48 -6.43,32.29 -3.8,15.68 -7.94,30.06 -12.8,43.54 -4.95,13.72 -10.65,26.53 -17.48,38.81 -15.6,28.09 -22.79,35.28 -32.01,44.52 -4.08,4.08 -8.62,8.63 -14.49,15.84l-18.97 23.29 -2.06 -31c-1.41,-21.17 3.9,-66.43 10.52,-122.9 14.97,-127.62 36.9,-314.67 2.76,-389.11 0.08,51.27 -3.31,137.59 -8.28,235.5 -8.29,163.57 -20.88,359.17 -29.04,477.7zm34.77 -74.06l-37.73 269.66 -1.44 2.04c-0.68,1.49 -1.39,2.93 -2.12,4.39 -4.94,10.34 -5.37,11.24 -15.36,13.07l-0.32 0.07c-1.84,0.3 -5.38,0.91 -8.72,-0.92 -5.32,1.94 -11.25,2.61 -17.15,2.65 -5.43,0.03 -10.79,-0.46 -15.53,-0.92l-0.79 -0.08 -38.77 0.79 -33.14 2.8 -44.37 -480.87c-6.46,-3.51 -12.9,-6.52 -19.47,-9.58 -16.53,-7.71 -33.82,-15.77 -56.88,-34.09 -11,-8.74 -22.59,-19.04 -33.63,-30.99 -11.15,-12.04 -21.72,-25.75 -30.54,-41.19 -18.47,-32.34 -30.63,-72.12 -34.9,-113.43 -4.09,-39.71 -0.93,-81.01 10.9,-118.66 5.76,-18.3 14.87,-38.13 27.42,-53.51 10.77,-13.19 24.07,-23.17 40.02,-26.52 36.22,-7.61 51.45,13.99 57.76,49.27 3.84,21.44 3.88,48.32 3.92,76.15 0.04,32.35 0.09,66.08 6.43,91.68 3.51,14.17 11.33,35.25 20.72,52.52l0.91 1.67 -0.2 -5.09c-2.4,-60.3 -4.78,-119.99 -0.03,-180.27 1.78,-22.61 4.76,-47.79 10.53,-72.21 5.89,-24.93 14.7,-48.74 28.09,-67.78 3.41,-4.86 8.53,-11.69 14.2,-17.52 6.85,-7.05 14.74,-12.77 22.69,-13.41l5.89 -0.7c0.88,-2.62 2.14,-4.01 3.46,-5.33l1.08 -1.47 2.26 -1.28c15.98,-8.98 40.9,-8.57 59.62,-8.27l5.97 0.11 2.83 3.85 0.42 -0.31 3.36 -0.25c8.21,-0.61 18.75,1.58 27.96,5.32 9.51,3.86 18.22,9.68 22.67,16.27l0.25 0.38 7.56 5.2c73.5,50.62 45.83,286.49 27.82,440 -3.99,34.05 -7.49,63.91 -9.28,86.18 5.56,-6.11 11.53,-14.24 21.78,-32.69 6.13,-11.03 11.25,-22.52 15.69,-34.82 4.52,-12.55 8.39,-25.99 11.95,-40.68 1.89,-7.8 3.87,-18.5 6.14,-30.75 9.94,-53.59 24.82,-133.85 61.13,-135.2l2.35 -0.08 2.43 0.98c6.5,-0.22 13.16,-0.63 19.62,-0.63 24.53,1.31 36.56,16.2 44.32,34.92 23.12,55.74 20.05,120.13 1.04,180.09 -21.3,67.18 -62.87,129.19 -109.94,167.01 -6.52,5.23 -14.58,11.02 -23.08,16.61 -8.59,5.65 -17.3,10.94 -25.02,15.1l-0.04 0c-4.85,2.6 -11.63,5.74 -18.77,9.03 -8.86,4.09 -18.32,8.45 -23.97,11.69zm85.25 -80.74c39.71,-35.22 74.31,-89.04 92.75,-147.19 5.08,-16.03 8.93,-32.36 11.29,-48.68 -4.81,20.35 -11.14,40.66 -18.74,60.34 -20.69,53.6 -50.9,102.85 -85.3,135.53zm-117.13 -596.78c-1.92,-2.22 -6.16,-4.63 -11.16,-6.66 -4.1,-1.67 -8.44,-2.89 -12.33,-3.43 -1.17,11.23 -3.1,56.73 -4.14,81.36 -0.31,7.44 -0.56,13.26 -0.71,15.48 -5.1,77.3 -7.62,157.11 -10.13,236.3 -1.42,45.02 -2.84,89.86 -4.66,133.03 -2.5,58.93 -3.64,118.08 -4.77,176.98 -0.45,23.5 -0.9,47 -1.42,69.94l-0.41 17.19c-0.83,35.28 -1.68,71.43 -1.72,106.11 -0.02,16.3 -0.66,33.23 -1.31,50.33 -0.84,22.4 -1.7,45.09 -1.15,65.75l2.86 0.04c1.17,-0.01 2.33,-0.04 3.43,-0.13 2.62,-18.22 3.85,-41.6 5.03,-63.89 0.8,-15.2 1.58,-29.93 2.78,-42.61 4.88,-51.8 9.51,-115.32 13.61,-179.09 4.14,-64.21 7.69,-127.64 10.46,-179.67 1.59,-30.01 3.2,-58.72 4.81,-87.47 2.89,-51.5 5.79,-103.02 8.09,-152.63 0.94,-20.41 1.51,-40.11 2.07,-59.84 0.61,-21.12 1.22,-42.29 2.18,-62.62 0.28,-5.93 1.42,-47.62 1.43,-78.88 0,-16.43 -0.17,-29.47 -0.72,-31.16 0,-0.1 -0.83,-1.85 -0.98,-2.19l-0.09 -0.1 -1.05 -2.14zm0.42 0.81l-0.04 -0.08 0.04 0.08zm-89.28 -10.58l-0.8 1.12c-2.13,6.66 -4.29,32.88 -6.22,65.1 -3.83,63.66 -6.27,147.29 -6.58,159.35 -1.04,41.74 -1.43,83.8 -1.3,125.79 0.12,41.91 0.78,83.99 1.83,125.77 0.55,21.79 1.03,43.55 1.5,65.28 1.29,59.39 2.59,118.66 5.4,179.16l1.23 25.47c1.54,31.61 3.1,63.51 3.68,95.98 0.3,16.96 0.83,38.75 1.78,60.86 0.73,16.79 1.7,33.46 3,47.68l0.77 -0.02 11.27 -486.65c1.84,-68.74 4.11,-141.01 7.05,-212.91 2.96,-72.75 6.62,-145.26 11.19,-213.64 0.42,-6.4 1.08,-12.53 1.7,-18.4 1.04,-9.76 1.98,-18.63 1.73,-24.03 -13.12,-0.09 -27.83,0.35 -37.23,4.09zm-106.12 433.74c1.81,1.4 5.69,3.93 9.93,6.69l0.05 0c9.22,6.02 19.86,12.95 22.67,18.11l5.96 10.9 -9.92 6.77c-1.2,0.82 -2.49,1.44 -3.85,1.86l9.25 5.45 43.3 469.29 1.84 -0.16 -10.44 -227.35c-2.34,-51.1 -3.33,-103.27 -4.31,-155.29 -0.53,-28.19 -1.06,-56.37 -1.83,-84.78 -1.32,-49.03 -2.94,-202.8 0.31,-326.05 1.48,-55.87 4,-105.75 8.09,-137.48 -3.67,4.11 -7.04,8.65 -9.44,12.07 -11.25,16 -18.79,36.59 -23.94,58.39 -5.27,22.3 -8.06,46.2 -9.77,67.92 -4.66,59.18 -2.33,117.79 0.03,177 0.52,13.19 1.05,26.44 1.53,40.69l0.73 21.3 -17.84 -9.04c-10.79,-5.46 -21.16,-19.11 -29.93,-35.23 -10.55,-19.4 -19.32,-43.05 -23.26,-58.96 -7.09,-28.63 -7.14,-64.25 -7.19,-98.42 -0.03,-26.39 -0.07,-51.9 -3.54,-71.24 -3.56,-19.96 -11.47,-32.34 -29.57,-28.54 -10.16,2.14 -19.05,8.99 -26.52,18.15 -10.18,12.46 -17.73,29.09 -22.62,44.62 -10.65,33.92 -13.48,71.33 -9.76,107.42 3.87,37.57 14.82,73.56 31.41,102.59 7.72,13.51 17.09,25.65 27.04,36.4 10.04,10.86 20.72,20.34 30.9,28.43 3.59,2.85 7.03,5.43 10.36,7.79 -2.61,-2.27 -4.75,-4.2 -6.22,-5.58 -7.31,-6.93 -17.98,-20.45 -24.81,-28.85l-3.33 -3.75c-10.68,-12.12 -17.12,-19.44 -21.79,-39.26l-6.34 -26.9 23.17 11.88c0.14,0.06 0.06,0.19 -0.15,0.33l-0.27 0.63 9.28 -1.18c1.22,3.46 2.42,6.94 3.69,10.37 0.02,0.06 -0.09,-0.3 2.07,2.86l0.72 1.05c27.75,40.54 28.11,41.07 64.31,69.1zm-79.8 -82.83c-0.75,0.55 -3.19,1.43 -2.67,1.25l1.32 -0.48 1.08 -0.14 0.27 -0.63z"/>
   <path class="fil4" d="M922.81 3376.88l38.1 -272.33c8.09,-6.56 36.2,-17.89 48.51,-24.52 15.47,-8.35 33.67,-20.34 46.3,-30.49 85.03,-68.31 151.51,-219.38 105.09,-331.31 -3.09,4.1 -2.96,-0.53 -1.89,12.67 8.08,100 -44.94,233.01 -113.84,294.9 -10.47,9.42 -68.93,59.3 -82.1,53.05 3.16,-7.62 3.12,-5.28 10.06,-8.86 3.07,-1.6 6.8,-3.64 10.47,-5.93 8.66,-5.41 13.69,-9.05 20.94,-13.97 15.51,-10.52 24.76,-18.85 38.19,-31.91 20.49,-19.9 45.54,-52.62 59.46,-80 28.65,-56.36 44.75,-100.94 48.81,-167.75 1.41,-23.29 1.14,-31.64 -1.88,-53.49 -1,-7.15 -1.46,-9.43 1.47,-15.09 -7.65,-1.04 -9.86,-10.08 -23.6,-10.82l-13.68 0.46c13.09,68.16 -23.48,194.4 -55.83,252.07 -8.35,14.89 -15.83,25.37 -23.25,35.91 -12.68,17.99 -41.4,49.95 -65.8,56.55 3.81,-11.87 -1.4,-4.2 8.82,-10.85l24.85 -19.22c71.45,-63.1 111.28,-210.38 104.92,-313.78l-3.48 -1.41c-33.63,1.25 -46.72,117.9 -56.01,156.24 -7.36,30.37 -15.99,55.6 -28.95,78.93 -22.09,39.75 -25.92,34.8 -45.19,58.47 -4.94,-74.16 79.99,-484.38 -11.92,-547.67 8.65,90.52 -33.06,713.47 -42.36,835.54 -2.69,35.27 -8.69,85.11 -8.98,115.7 0.54,0.22 1.46,-0.15 1.69,0.48 0.21,0.57 1.32,0.33 1.6,0.29 4.94,-0.91 4.22,-1.34 8.49,-9.88 0.25,-0.5 0.57,-1.38 0.99,-1.98zm27.5 -949.05c-6.16,-9.14 -27.2,-17.24 -40.11,-16.28 -7.29,5.49 -9.41,93.76 -10.43,109.21 -7.92,119.96 -9.66,248.34 -14.79,369.69 -3.48,81.82 -4.33,165.09 -6.2,247.17 -0.93,40.65 -2.07,82.88 -2.12,123.61 -0.04,40.68 -4.25,89 -1.99,128.28 8.96,0.87 20.18,1.87 28.24,-1.26 5.96,-31.52 6.18,-82.27 9.38,-116.2 9.85,-104.62 18.55,-254.39 24.12,-359.38 4.24,-80.01 9.22,-160.89 12.9,-240.2 1.89,-40.67 2.31,-81.47 4.25,-122.41 0.44,-9.25 2.96,-106.09 0.05,-115.04 -0.23,-0.73 -1.22,-2.84 -1.49,-3.47 -0.23,-0.53 -0.68,-1.4 -0.88,-1.83 -0.2,-0.46 -0.69,-1.22 -0.93,-1.89zm-107.59 -12.84c-0.46,0.64 -1.05,0.81 -1.23,2.01 -0.18,1.16 -0.89,1.46 -1.12,2 -0.21,0.5 -0.69,1.35 -0.92,1.98 -7.76,20.84 -13.33,210.68 -13.8,229.45 -2.09,83.53 -1.57,168.65 0.53,252.16 2.05,81.7 3.08,162.62 6.9,244.81 1.87,40.02 4.19,80.71 4.91,120.99 0.62,34.55 2.11,88.15 6.08,121.58l23.22 -0.48 11.56 -499.08c3.68,-136.81 9.04,-288.41 18.24,-425.99 1.58,-23.71 6.78,-46.78 -0.2,-56.27 -17.45,-0.28 -40.76,-0.7 -54.17,6.84zm-104.55 454.54c5.88,4.55 27.31,17.24 29.26,20.81 -9.68,6.61 -50.98,-28.22 -60.91,-37.58l-22.96 -26.72c-9.96,-11.98 4.91,5.59 -2.26,-2.6 -10.59,-12.09 -16.75,-18.12 -20.94,-35.9 11.13,5.7 1.89,-3.01 10.09,8.97 29.59,43.23 29.66,43.54 67.72,73.02zm73.57 522.46l25.24 -2.14 -11.01 -240.01c-3.66,-79.52 -4,-160.28 -6.15,-239.81 -2.12,-78.71 -5.03,-427.96 12.84,-485.69l-7.26 0.86c-9.44,0.76 -21.91,16.84 -28.21,25.82 -24.64,35.03 -32.67,88.8 -36.16,133.14 -5.78,73.22 -0.93,145.57 1.56,219.23 -19.2,-9.73 -40.04,-59.17 -46.64,-85.76 -19.6,-79.17 17.62,-222.74 -54.2,-207.65 -29.33,6.17 -48.69,40.9 -58.29,71.4 -22.95,73.03 -11.54,160.87 22.82,221.05 16.55,28.96 39.87,51.66 61.06,68.51 33.77,26.82 55.15,30.78 80.55,45.89l43.85 475.16z"/>
  </g>
 </g>
</svg>
