<?xml version="1.0" encoding="UTF-8"?>
<!DOCTYPE svg PUBLIC "-//W3C//DTD SVG 1.1//EN" "http://www.w3.org/Graphics/SVG/1.1/DTD/svg11.dtd">
<!-- Creator: CorelDRAW -->
<svg xmlns="http://www.w3.org/2000/svg" xml:space="preserve" width="641px" height="895px" version="1.1" style="shape-rendering:geometricPrecision; text-rendering:geometricPrecision; image-rendering:optimizeQuality; fill-rule:evenodd; clip-rule:evenodd"
viewBox="0 0 64.23 89.72"
 xmlns:xlink="http://www.w3.org/1999/xlink"
 xmlns:xodm="http://www.corel.com/coreldraw/odm/2003">
 <defs>
  <style type="text/css">
   <![CDATA[
    .fil0 {fill:#FEFEFE;fill-rule:nonzero}
   ]]>
  </style>
 </defs>
 <g id="Layer_x0020_1">
  <metadata id="CorelCorpID_0Corel-Layer"/>
  <path class="fil0" d="M32.12 0c8.87,0 16.9,3.59 22.71,9.41 5.81,5.81 9.4,13.84 9.4,22.71 0,5.16 -1.22,10.05 -3.4,14.39 -2.13,4.24 -5.17,7.94 -8.85,10.85l5.17 30.71c0.13,0.77 -0.39,1.5 -1.16,1.63 -0.08,0.01 -0.15,0.02 -0.23,0.02l0 0 -47.28 0c-0.79,0 -1.42,-0.63 -1.42,-1.41 0,-0.12 0.02,-0.23 0.04,-0.33l5.16 -30.62c-3.69,-2.91 -6.73,-6.61 -8.85,-10.85 -2.18,-4.34 -3.41,-9.23 -3.41,-14.39 0,-8.87 3.59,-16.9 9.41,-22.71 5.81,-5.82 13.84,-9.41 22.71,-9.41zm1.66 77.17l6.36 0c0.43,0 0.77,0.34 0.77,0.77l0 1.73c0,0.43 -0.34,0.78 -0.77,0.78l-8.42 0c-0.42,0 -0.77,-0.35 -0.77,-0.78l0 -0.86 0 -0.87 0 -2.83 0 -1.74 0 -2.83 0 -1.73 0 -3.66 -6.58 0c-0.76,0 -1.45,-0.31 -1.95,-0.81 -0.5,-0.5 -0.82,-1.2 -0.82,-1.96l0 -8.53c0,-1.06 0.01,0.25 0.01,-0.51 0.01,-2.13 0.02,-3.13 -2.56,-5.43 -2.1,-1.87 -3.8,-4.18 -4.97,-6.79 -1.12,-2.51 -1.75,-5.28 -1.75,-8.2 0,-5.55 2.25,-10.57 5.89,-14.21 3.64,-3.64 8.66,-5.89 14.21,-5.89 5.55,0 10.58,2.25 14.22,5.89 3.63,3.64 5.88,8.66 5.88,14.21 0,2.92 -0.62,5.69 -1.75,8.2 -1.16,2.61 -2.87,4.92 -4.97,6.79 -2.57,2.3 -2.57,3.3 -2.56,5.43 0.01,0.76 0.01,-0.55 0.01,0.51l0 8.53c0,0.76 -0.31,1.46 -0.81,1.96 -0.5,0.5 -1.2,0.81 -1.96,0.81l-6.71 0 0 2.88 6.36 0c0.43,0 0.77,0.35 0.77,0.78l0 1.73c0,0.43 -0.34,0.77 -0.77,0.77l-6.36 0 0 1.29 6.36 0c0.43,0 0.77,0.35 0.77,0.77l0 1.74c0,0.42 -0.34,0.77 -0.77,0.77l-6.36 0 0 1.29zm-9.06 0l3.52 0c0.42,0 0.77,0.34 0.77,0.77l0 1.73c0,0.43 -0.35,0.78 -0.77,0.78l-3.52 0c-0.42,0 -0.77,-0.35 -0.77,-0.78l0 -1.73c0,-0.43 0.35,-0.77 0.77,-0.77zm0 -4.57l3.52 0c0.42,0 0.77,0.35 0.77,0.77l0 1.74c0,0.42 -0.35,0.77 -0.77,0.77l-3.52 0c-0.42,0 -0.77,-0.35 -0.77,-0.77l0 -1.74c0,-0.42 0.35,-0.77 0.77,-0.77zm0 -4.57l3.52 0c0.42,0 0.77,0.35 0.77,0.78l0 1.73c0,0.43 -0.35,0.77 -0.77,0.77l-3.52 0c-0.42,0 -0.77,-0.34 -0.77,-0.77l0 -1.73c0,-0.43 0.35,-0.78 0.77,-0.78zm9.06 -21.64l0 15.93 6.65 0 0 -8.47c0,-1.41 0.01,-0.06 0.01,-0.5 -0.02,-2.99 -0.02,-4.39 3.5,-7.54 1.8,-1.61 3.27,-3.6 4.27,-5.83 0.96,-2.15 1.5,-4.54 1.5,-7.06 0,-4.77 -1.94,-9.09 -5.06,-12.21 -3.13,-3.13 -7.45,-5.06 -12.22,-5.06 -4.77,0 -9.09,1.93 -12.21,5.06 -3.13,3.12 -5.06,7.44 -5.06,12.21 0,2.52 0.53,4.91 1.5,7.06 1,2.23 2.46,4.22 4.27,5.83 3.52,3.15 3.51,4.55 3.5,7.54 0,0.44 0,-0.91 0,0.5l0 8.47 6.52 0 0 -15.93c-0.8,0.55 -1.77,0.87 -2.81,0.87 -1.39,0 -2.64,-0.57 -3.55,-1.47 -0.91,-0.91 -1.47,-2.17 -1.47,-3.55 0,-1.39 0.56,-2.64 1.47,-3.55 0.79,-0.79 1.84,-1.32 3.01,-1.44 -0.17,-0.5 -0.26,-1.03 -0.26,-1.58 0,-1.39 0.57,-2.64 1.47,-3.55 0.91,-0.91 2.17,-1.47 3.55,-1.47 1.39,0 2.64,0.56 3.55,1.47 0.91,0.91 1.47,2.16 1.47,3.55 0,0.55 -0.09,1.08 -0.25,1.58 1.17,0.12 2.22,0.65 3.01,1.44 0.9,0.91 1.47,2.16 1.47,3.55 0,1.38 -0.57,2.64 -1.47,3.55 -0.91,0.9 -2.17,1.47 -3.55,1.47 -1.04,0 -2.01,-0.32 -2.81,-0.87zm-4.1 -5.7c-0.39,-0.4 -0.94,-0.64 -1.54,-0.64 -0.61,0 -1.16,0.24 -1.55,0.64 -0.4,0.39 -0.65,0.94 -0.65,1.55 0,0.6 0.25,1.15 0.65,1.55 0.39,0.39 0.94,0.64 1.55,0.64 0.6,0 1.15,-0.25 1.54,-0.64 0.4,-0.4 0.65,-0.95 0.65,-1.55 0,-0.61 -0.25,-1.16 -0.65,-1.55zm8.46 0c-0.4,-0.4 -0.95,-0.64 -1.55,-0.64 -0.61,0 -1.15,0.24 -1.55,0.64 -0.4,0.39 -0.64,0.94 -0.64,1.55 0,0.6 0.24,1.15 0.64,1.55 0.4,0.39 0.94,0.64 1.55,0.64 0.6,0 1.15,-0.25 1.55,-0.64 0.39,-0.4 0.64,-0.95 0.64,-1.55 0,-0.61 -0.25,-1.16 -0.64,-1.55zm-4.23 -6.57c-0.4,-0.4 -0.94,-0.64 -1.55,-0.64 -0.6,0 -1.15,0.24 -1.55,0.64 -0.39,0.39 -0.64,0.94 -0.64,1.55 0,0.6 0.25,1.15 0.64,1.55 0.4,0.39 0.95,0.64 1.55,0.64 0.61,0 1.15,-0.25 1.55,-0.64 0.4,-0.4 0.64,-0.95 0.64,-1.55 0,-0.61 -0.24,-1.16 -0.64,-1.55zm18.92 -22.71c-5.3,-5.3 -12.62,-8.58 -20.71,-8.58 -8.09,0 -15.41,3.28 -20.71,8.58 -5.3,5.3 -8.58,12.62 -8.58,20.71 0,4.73 1.11,9.19 3.09,13.13 2.05,4.08 5.03,7.62 8.66,10.33 0.44,0.3 0.7,0.84 0.6,1.41l-5.04 29.9 43.95 0 -5.04 -29.9 0 0c-0.08,-0.51 0.11,-1.04 0.55,-1.37 3.66,-2.72 6.65,-6.27 8.71,-10.37 1.98,-3.94 3.1,-8.4 3.1,-13.13 0,-8.09 -3.28,-15.41 -8.58,-20.71z"/>
 </g>
</svg>
