<?xml version="1.0" encoding="UTF-8"?>
<!DOCTYPE svg PUBLIC "-//W3C//DTD SVG 1.1//EN" "http://www.w3.org/Graphics/SVG/1.1/DTD/svg11.dtd">
<!-- Creator: CorelDRAW -->
<svg xmlns="http://www.w3.org/2000/svg" xml:space="preserve" width="2739px" height="741px" version="1.1" style="shape-rendering:geometricPrecision; text-rendering:geometricPrecision; image-rendering:optimizeQuality; fill-rule:evenodd; clip-rule:evenodd"
viewBox="0 0 2055.05 555.96"
 xmlns:xlink="http://www.w3.org/1999/xlink"
 xmlns:xodm="http://www.corel.com/coreldraw/odm/2003">
 <defs>
  <style type="text/css">
   <![CDATA[
    .str0 {stroke:#FEFEFE;stroke-width:1.5;stroke-miterlimit:22.9256}
    .fil0 {fill:#FEFEFE}
   ]]>
  </style>
 </defs>
 <g id="Layer_x0020_1">
  <metadata id="CorelCorpID_0Corel-Layer"/>
  <g id="_2002220216400">
   <path class="fil0 str0" d="M556.44 119.7l-0.77 433.73 122.78 0.28c-0.5,-42.22 -3.77,-400.97 2.08,-408.43l0.94 -9.99c4.28,-10.14 12.72,-20.1 29.07,-15.38 11.87,3.42 13.64,18.77 17.49,30.67l95.57 285.57c9.7,29.23 17.57,42.38 33.36,63.06 11.05,14.47 31.5,30.44 54.02,40.1 25.67,11.01 55.58,10.92 85.24,5.78 36.46,-5.74 65.98,-28.34 81.86,-48.5 26.93,-34.18 25.68,-51.16 25.93,-102.33 0.42,-85.79 3.79,-171.42 2.62,-257.17 1.6,-9.57 4.75,-10.94 13.67,-13.71 8.15,-2.54 18.59,-3.07 27.59,-3.33 19.2,-0.55 38.79,1.63 57.65,0.86 17.61,-26.13 24.37,-44.35 45.47,-61.96 8.98,-7.5 20.65,-16.42 32.09,-23.11 10.61,-6.2 25.02,-11.53 36.52,-17.6l-252.02 1.33c-69.2,1.05 -42.98,7.96 -64.58,16.92 -19.7,38.76 -23.01,39.45 -21.62,93.74 0.94,36.43 0.22,73.68 0.22,110.21l0.15 167.71c-0.3,14.93 -14.3,28.78 -28.6,20.19 -13.08,-3.23 -12.44,-14.75 -17.05,-28.92l-77.82 -229.9c-18.39,-53.85 -20.77,-81.92 -53.75,-123 -10.07,-12.54 -31.91,-27.71 -51.25,-36.02 -25.97,-11.16 -47.66,-10.95 -78.25,-8.1 -45.63,14.03 -80.23,26.3 -103.8,72.34 -8.76,17.11 -9.36,27.25 -14.81,44.96z"/>
   <path class="fil0 str0" d="M21.14 78.97c-9.39,29.04 -18.45,41.87 -20.17,78.79 -3.73,80.36 35.86,148.6 117.97,170.27 46.93,12.38 134,7.24 186.38,7.2 34.98,-0.03 53.64,3.22 62.86,32.91 8.83,28.46 -5.03,58.37 -27.16,65.14 -20.24,9.58 -281.45,-3.77 -311.83,4.43 -4.31,12.12 -5.21,103.09 -0.35,113.32 2.36,2.7 7.48,2.87 10.06,3.18 1.54,0.18 7.37,0.09 9.24,0.07 72.23,-0.7 250.39,3.23 293.83,-1.26 171.97,-17.74 172.18,-211.35 107.31,-284.32 -58.56,-65.88 -171.57,-51.43 -261.05,-51.36 -31.27,0.02 -44.45,0.39 -59.84,-18.14 -12.6,-15.16 -14.84,-45.91 0.06,-58.91 11.85,-27.02 54.29,-20.5 89.63,-20.5 37.5,0 75,0 112.49,0 75.13,0 150.81,0.9 225.87,-0.09 5.45,-17.71 6.05,-27.85 14.81,-44.96 23.57,-46.04 58.17,-58.31 103.8,-72.34 -120.61,-3.45 -246.26,-0.21 -367.43,-0.21 -52.77,0 -129.64,-4.46 -178.63,4.54 -55.3,10.16 -83.93,37.52 -107.85,72.24z"/>
   <path class="fil0 str0" d="M1319.62 18.24c-11.5,6.07 -25.91,11.4 -36.52,17.6 -11.44,6.69 -23.11,15.61 -32.09,23.11 -21.1,17.61 -27.86,35.83 -45.47,61.96 -24.14,73.89 -34.84,107.58 -28.46,195.35 10.69,146.98 82.55,228.17 223.28,236.85l230.76 0.2 -0.95 -117.38c-57.37,0.51 -114.94,0.06 -172.32,0.06 -63.14,0 -104.32,5.33 -136.57,-36.02 -25.51,-32.72 -31.39,-92.4 -27.97,-143.49 2.3,-34.31 15.21,-109.59 50.06,-118.23 18.3,-27.81 122.32,-18.45 160.39,-18.45 59.47,0 122.75,2.07 181.73,-0.24l-0.31 -117.34c-63.51,-0.28 -127.08,-0.03 -190.6,-0.03 -31.36,0 -63.66,-0.93 -94.41,1.2 -33.92,2.34 -50.81,8.04 -80.55,14.85z"/>
   <polygon class="fil0 str0" points="1685.49,119.56 1814.32,119.84 1814.78,553.79 1931.96,553.5 1932.71,120.29 2054.3,119.09 2053.89,2.2 1685.18,2.22 "/>
  </g>
 </g>
</svg>
